<?xml version="1.0" standalone="no"?>
<!DOCTYPE svg PUBLIC "-//W3C//DTD SVG 20010904//EN"
 "http://www.w3.org/TR/2001/REC-SVG-20010904/DTD/svg10.dtd">
<svg version="1.0" xmlns="http://www.w3.org/2000/svg"
 width="512.000000pt" height="512.000000pt" viewBox="0 0 512.000000 512.000000"
 preserveAspectRatio="xMidYMid meet">
<metadata>
Created by potrace 1.11, written by Peter Selinger 2001-2013
</metadata>
<g transform="translate(0.000000,512.000000) scale(0.100000,-0.100000)"
fill="#000000" stroke="none">
<path d="M2550 4799 c-92 -57 -175 -211 -244 -454 -30 -108 -73 -318 -81 -401
-3 -32 -8 -69 -10 -82 -26 -156 -26 -678 0 -807 2 -11 7 -51 10 -88 4 -37 8
-76 10 -85 1 -9 6 -37 9 -62 3 -25 8 -54 10 -65 2 -11 9 -52 16 -92 l12 -72
-77 -120 c-77 -122 -81 -130 -90 -211 -3 -25 -8 -56 -10 -70 -3 -14 -7 -41
-10 -60 -13 -100 -15 -118 -21 -152 l-6 -38 166 0 166 0 0 55 c0 44 3 55 16
55 14 0 15 -11 10 -77 -16 -197 -16 -197 -44 -218 -74 -54 -134 -123 -166
-186 l-34 -68 -26 37 c-83 120 -238 159 -387 97 -15 -6 -16 3 -12 77 3 46 5
110 4 143 0 33 -2 260 -4 505 -2 245 -7 458 -11 474 -38 151 -259 161 -315 14
-6 -16 -10 -193 -10 -462 0 -285 -4 -442 -11 -455 -17 -33 -16 -128 3 -157 4
-7 7 -65 8 -130 1 -204 2 -194 -25 -194 -17 0 -35 14 -62 50 -20 27 -43 51
-51 54 -11 4 -13 158 -13 851 l0 845 -27 30 c-44 49 -123 41 -154 -16 -9 -19
-12 -192 -12 -804 0 -709 -2 -780 -16 -776 -9 3 -38 8 -66 12 -27 3 -52 8 -54
10 -2 1 -3 243 -3 536 0 566 -1 573 -47 598 -35 18 -86 12 -115 -15 -14 -13
-27 -30 -28 -37 0 -7 -2 -259 -3 -560 l-1 -547 -75 -38 c-85 -42 -189 -139
-232 -217 -152 -275 -44 -626 234 -759 42 -21 83 -37 91 -37 17 0 28 -20 28
-48 0 -33 48 -118 90 -160 44 -44 117 -87 166 -97 139 -28 298 36 364 148 15
26 27 36 38 33 10 -3 37 -8 62 -11 25 -3 63 -7 85 -10 86 -11 123 -14 210 -21
122 -9 118 -8 130 -35 19 -44 47 -78 81 -100 46 -28 127 -32 175 -8 38 19 99
82 99 102 0 9 76 12 323 12 411 1 602 9 935 41 50 5 63 3 62 -7 -8 -52 29 -98
82 -105 30 -5 42 0 69 24 29 26 33 36 32 75 l-2 45 47 7 c26 3 56 9 67 11 11
3 56 5 101 4 75 -1 135 8 176 25 13 5 21 -4 38 -42 25 -58 71 -107 125 -136
53 -29 173 -30 225 -3 49 26 98 74 123 121 33 61 31 174 -4 236 l-25 45 54 60
c92 101 142 232 142 372 0 191 -117 386 -287 475 l-68 35 1 736 c1 698 0 738
-18 766 -34 56 -103 63 -149 14 l-24 -26 -3 -726 c-1 -399 -3 -727 -5 -728 -1
-1 -22 -4 -47 -7 -25 -3 -59 -9 -76 -12 l-30 -7 -1 501 c-1 275 -4 509 -8 520
-13 43 -86 68 -130 45 -15 -8 -28 -14 -29 -14 0 0 0 145 0 322 2 298 1 326
-17 364 -18 39 -68 74 -104 74 -13 0 -15 31 -15 200 l0 200 -27 30 c-16 16
-39 31 -53 34 -35 5 -86 -17 -101 -46 -11 -18 -13 -265 -14 -1238 l-1 -1215
-51 -52 c-28 -29 -59 -71 -69 -93 -10 -22 -21 -40 -24 -40 -3 0 -6 429 -6 952
0 1074 5 1001 -76 1038 -69 31 -137 6 -167 -60 -14 -32 -16 -126 -16 -886 l1
-851 -46 -16 c-25 -9 -58 -28 -75 -43 -27 -23 -30 -24 -33 -7 -19 112 -117
251 -220 310 -26 14 -48 28 -50 29 -4 2 -8 39 -17 148 -4 43 -8 87 -10 97 -3
13 2 19 14 19 15 0 17 -9 16 -55 l-1 -55 168 0 168 0 -4 27 c-9 48 -25 157
-30 193 -25 184 -23 180 -96 296 -38 61 -72 118 -75 127 -4 8 5 89 19 179 83
522 82 928 -1 1358 -56 294 -144 528 -236 627 -70 76 -123 91 -187 52z"/>
<path d="M1680 3881 c-13 -28 -26 -51 -29 -52 -39 -3 -97 -12 -100 -15 -3 -3
12 -22 33 -43 34 -35 37 -43 33 -77 -3 -22 -9 -47 -13 -57 -6 -17 -5 -18 31
-2 21 8 44 20 51 26 9 7 26 4 61 -13 26 -12 51 -24 56 -26 7 -4 1 55 -9 91 -4
13 7 30 37 57 45 42 44 44 -26 54 -22 3 -44 11 -48 18 -4 7 -18 30 -31 52
l-23 39 -23 -52z"/>
<path d="M4771 2582 c-23 -49 -25 -51 -75 -57 -28 -4 -54 -9 -58 -11 -4 -3 12
-22 34 -42 l41 -38 -10 -57 c-6 -31 -8 -57 -5 -57 2 0 26 12 53 26 37 21 52
24 62 16 7 -7 30 -18 50 -27 l37 -15 -6 36 c-3 20 -7 46 -10 57 -2 13 10 33
36 58 42 41 48 51 28 48 -7 -1 -34 1 -59 5 -39 7 -47 12 -57 40 -7 18 -18 40
-25 50 -12 16 -15 13 -36 -32z"/>
<path d="M320 2273 c-13 -27 -24 -49 -25 -51 -1 -1 -22 -5 -46 -8 -71 -9 -72
-11 -28 -51 l41 -39 -10 -51 c-5 -29 -7 -55 -4 -57 2 -3 26 6 53 20 l49 24 45
-25 c57 -31 58 -31 51 3 -18 80 -18 81 23 121 43 42 43 51 0 51 -50 0 -75 17
-98 64 -11 25 -23 46 -24 46 -2 0 -14 -21 -27 -47z"/>
<path d="M213 695 c-79 -33 -73 -146 10 -172 80 -24 148 55 111 129 -24 47
-72 64 -121 43z"/>
</g>
</svg>
